<svg xmlns="http://www.w3.org/2000/svg" width="1400" height="360" viewBox="0 0 1400 360">
  <defs>
    <linearGradient id="bg" x1="0" y1="0" x2="1" y2="1">
      <stop offset="0" stop-color="#0b1020"/>
      <stop offset="1" stop-color="#111827"/>
    </linearGradient>
    <linearGradient id="ring" x1="0" y1="0" x2="1" y2="0">
      <stop offset="0" stop-color="#60a5fa"/>
      <stop offset="1" stop-color="#a78bfa"/>
    </linearGradient>
    <filter id="softGlow" x="-20%" y="-20%" width="140%" height="140%">
      <feGaussianBlur stdDeviation="6" result="blur"/>
      <feMerge>
        <feMergeNode in="blur"/>
        <feMergeNode in="SourceGraphic"/>
      </feMerge>
    </filter>
  </defs>

  <rect width="1400" height="360" fill="url(#bg)"/>

  <!-- Ring -->
  <g transform="translate(1040,180)">
    <circle r="110" fill="none" stroke="url(#ring)" stroke-width="14" filter="url(#softGlow)"/>
    <circle r="110" fill="none" stroke="#ffffff" stroke-opacity="0.10" stroke-width="2"/>
    <!-- Pointer dot -->
    <circle cx="0" cy="-110" r="10" fill="#fbbf24" filter="url(#softGlow)"/>
    <path d="M 0 -110 L 62 -90" stroke="#fbbf24" stroke-width="3" stroke-opacity="0.7"/>
    <!-- Small tick marks -->
    <g stroke="#ffffff" stroke-opacity="0.12" stroke-width="2">
      <path d="M 0 -122 L 0 -135"/>
      <path d="M 122 0 L 135 0"/>
      <path d="M 0 122 L 0 135"/>
      <path d="M -122 0 L -135 0"/>
    </g>
  </g>

  <!-- Text block -->
  <g font-family="ui-sans-serif, system-ui, -apple-system, Segoe UI, Roboto, Helvetica, Arial" fill="#ffffff">
    <text x="90" y="140" font-size="56" font-weight="800">VEXOR</text>
    <text x="90" y="182" font-size="22" opacity="0.86">Phase‑Recurring Infinite Manifold Engine</text>
    <text x="90" y="226" font-size="18" opacity="0.78">
      Pointer‑driven recurrent memory on a continuous circular manifold (ring buffer)
    </text>
    <text x="90" y="254" font-size="18" opacity="0.78">
      Seam‑safe learning • Fractional kernels • Cadence/AGC stabilization
    </text>

    <!-- Chips -->
    <g opacity="0.9">
      <rect x="90" y="284" rx="12" ry="12" width="190" height="36" fill="#1f2937" stroke="#334155"/>
      <text x="108" y="308" font-size="14" fill="#93c5fd">Research Preview</text>

      <rect x="292" y="284" rx="12" ry="12" width="180" height="36" fill="#1f2937" stroke="#334155"/>
      <text x="310" y="308" font-size="14" fill="#c4b5fd">Recurrent Architecture</text>

      <rect x="484" y="284" rx="12" ry="12" width="220" height="36" fill="#1f2937" stroke="#334155"/>
      <text x="502" y="308" font-size="14" fill="#fcd34d">Ring‑stability focus</text>
    </g>
  </g>
</svg>

